<svg width="502" height="164" viewBox="0 0 502 164" fill="none" xmlns="http://www.w3.org/2000/svg">
<path d="M185.886 114.753L36.6891 148.989L24.6642 116.298L12.6393 83.6077L79.6271 21.9535L185.886 114.753Z" fill="#3137B9"/>
<ellipse cx="125.892" cy="59.0501" rx="60.1079" ry="59.0501" fill="#26AA4B"/>
<path d="M221.376 96.512C220.352 96.512 219.52 96.2773 218.88 95.808C218.283 95.3387 217.92 94.72 217.792 93.952C217.664 93.1413 217.813 92.2453 218.24 91.264L235.136 53.824C235.691 52.5867 236.352 51.712 237.12 51.2C237.931 50.6453 238.848 50.368 239.872 50.368C240.853 50.368 241.728 50.6453 242.496 51.2C243.307 51.712 243.989 52.5867 244.544 53.824L261.504 91.264C261.973 92.2453 262.144 93.1413 262.016 93.952C261.888 94.7627 261.525 95.4027 260.928 95.872C260.331 96.2987 259.541 96.512 258.56 96.512C257.365 96.512 256.427 96.2347 255.744 95.68C255.104 95.0827 254.528 94.1867 254.016 92.992L249.856 83.328L253.312 85.568H226.304L229.76 83.328L225.664 92.992C225.109 94.2293 224.533 95.1253 223.936 95.68C223.339 96.2347 222.485 96.512 221.376 96.512ZM239.744 59.776L230.784 81.088L229.12 79.04H250.496L248.896 81.088L239.872 59.776H239.744ZM271.881 96.512C270.558 96.512 269.534 96.1707 268.809 95.488C268.126 94.7627 267.785 93.7387 267.785 92.416V68.224C267.785 66.9013 268.126 65.8987 268.809 65.216C269.492 64.5333 270.452 64.192 271.689 64.192C272.926 64.192 273.886 64.5333 274.569 65.216C275.252 65.8987 275.593 66.9013 275.593 68.224V72.256H274.953C275.55 69.696 276.724 67.7547 278.473 66.432C280.222 65.1093 282.548 64.32 285.449 64.064C286.345 63.9787 287.049 64.2133 287.561 64.768C288.116 65.28 288.436 66.0907 288.521 67.2C288.606 68.2667 288.35 69.1413 287.753 69.824C287.198 70.464 286.345 70.848 285.193 70.976L283.785 71.104C281.182 71.36 279.22 72.1707 277.897 73.536C276.574 74.8587 275.913 76.736 275.913 79.168V92.416C275.913 93.7387 275.572 94.7627 274.889 95.488C274.206 96.1707 273.204 96.512 271.881 96.512ZM296.816 96.448C295.536 96.448 294.554 96.064 293.872 95.296C293.189 94.528 292.848 93.4613 292.848 92.096V68.608C292.848 67.2 293.189 66.1333 293.872 65.408C294.554 64.64 295.536 64.256 296.816 64.256C298.096 64.256 299.077 64.64 299.76 65.408C300.485 66.1333 300.848 67.2 300.848 68.608V92.096C300.848 93.4613 300.506 94.528 299.824 95.296C299.141 96.064 298.138 96.448 296.816 96.448ZM296.816 58.304C295.322 58.304 294.149 57.9413 293.296 57.216C292.485 56.448 292.08 55.4027 292.08 54.08C292.08 52.7147 292.485 51.6693 293.296 50.944C294.149 50.2187 295.322 49.856 296.816 49.856C298.352 49.856 299.525 50.2187 300.336 50.944C301.146 51.6693 301.552 52.7147 301.552 54.08C301.552 55.4027 301.146 56.448 300.336 57.216C299.525 57.9413 298.352 58.304 296.816 58.304ZM319.464 96.64C317.203 96.64 315.176 96.2133 313.384 95.36C311.635 94.464 310.248 93.2693 309.224 91.776C308.243 90.2827 307.752 88.5973 307.752 86.72C307.752 84.416 308.349 82.6027 309.544 81.28C310.739 79.9147 312.68 78.9333 315.368 78.336C318.056 77.7387 321.661 77.44 326.184 77.44H329.384V82.048H326.248C323.603 82.048 321.491 82.176 319.912 82.432C318.333 82.688 317.203 83.136 316.52 83.776C315.88 84.3733 315.56 85.2267 315.56 86.336C315.56 87.744 316.051 88.896 317.032 89.792C318.013 90.688 319.379 91.136 321.128 91.136C322.536 91.136 323.773 90.816 324.84 90.176C325.949 89.4933 326.824 88.576 327.464 87.424C328.104 86.272 328.424 84.9493 328.424 83.456V76.096C328.424 73.9627 327.955 72.4267 327.016 71.488C326.077 70.5493 324.499 70.08 322.28 70.08C321.043 70.08 319.699 70.2293 318.248 70.528C316.84 70.8267 315.347 71.3387 313.768 72.064C312.957 72.448 312.232 72.5547 311.592 72.384C310.995 72.2133 310.525 71.872 310.184 71.36C309.843 70.8053 309.672 70.208 309.672 69.568C309.672 68.928 309.843 68.3093 310.184 67.712C310.525 67.072 311.101 66.6027 311.912 66.304C313.875 65.4933 315.752 64.9173 317.544 64.576C319.379 64.2347 321.043 64.064 322.536 64.064C325.608 64.064 328.125 64.5333 330.088 65.472C332.093 66.4107 333.587 67.84 334.568 69.76C335.549 71.6373 336.04 74.0693 336.04 77.056V92.416C336.04 93.7387 335.72 94.7627 335.08 95.488C334.44 96.1707 333.523 96.512 332.328 96.512C331.133 96.512 330.195 96.1707 329.512 95.488C328.872 94.7627 328.552 93.7387 328.552 92.416V89.344H329.064C328.765 90.8373 328.168 92.1387 327.272 93.248C326.419 94.3147 325.331 95.1467 324.008 95.744C322.685 96.3413 321.171 96.64 319.464 96.64ZM382.527 96.64C378.175 96.64 374.356 95.68 371.071 93.76C367.828 91.84 365.311 89.152 363.519 85.696C361.727 82.1973 360.831 78.1013 360.831 73.408C360.831 69.8667 361.343 66.688 362.367 63.872C363.391 61.0133 364.842 58.5813 366.719 56.576C368.639 54.528 370.922 52.9707 373.567 51.904C376.255 50.7947 379.242 50.24 382.527 50.24C386.922 50.24 390.74 51.2 393.983 53.12C397.226 54.9973 399.743 57.664 401.535 61.12C403.327 64.576 404.223 68.6507 404.223 73.344C404.223 76.8853 403.711 80.0853 402.687 82.944C401.663 85.8027 400.191 88.256 398.271 90.304C396.394 92.352 394.111 93.9307 391.423 95.04C388.778 96.1067 385.812 96.64 382.527 96.64ZM382.527 89.6C385.3 89.6 387.647 88.96 389.567 87.68C391.53 86.4 393.023 84.544 394.047 82.112C395.114 79.68 395.647 76.7787 395.647 73.408C395.647 68.288 394.495 64.32 392.191 61.504C389.93 58.688 386.708 57.28 382.527 57.28C379.796 57.28 377.45 57.92 375.487 59.2C373.524 60.4373 372.01 62.272 370.943 64.704C369.919 67.0933 369.407 69.9947 369.407 73.408C369.407 78.4853 370.559 82.4533 372.863 85.312C375.167 88.1707 378.388 89.6 382.527 89.6ZM423.241 96.64C421.406 96.64 419.465 96.448 417.417 96.064C415.369 95.68 413.534 95.0187 411.913 94.08C411.23 93.6533 410.74 93.1627 410.441 92.608C410.185 92.0107 410.078 91.4347 410.121 90.88C410.206 90.2827 410.42 89.7707 410.761 89.344C411.145 88.9173 411.614 88.64 412.169 88.512C412.766 88.384 413.406 88.4907 414.089 88.832C415.796 89.6427 417.396 90.2187 418.889 90.56C420.382 90.8587 421.854 91.008 423.305 91.008C425.353 91.008 426.868 90.6667 427.849 89.984C428.873 89.2587 429.385 88.32 429.385 87.168C429.385 86.1867 429.044 85.44 428.361 84.928C427.721 84.3733 426.74 83.968 425.417 83.712L419.017 82.496C416.372 81.984 414.345 81.024 412.937 79.616C411.572 78.1653 410.889 76.3093 410.889 74.048C410.889 72 411.444 70.2293 412.553 68.736C413.705 67.2427 415.284 66.0907 417.289 65.28C419.294 64.4693 421.598 64.064 424.201 64.064C426.078 64.064 427.828 64.2773 429.449 64.704C431.113 65.088 432.713 65.7067 434.249 66.56C434.889 66.9013 435.316 67.3493 435.529 67.904C435.785 68.4587 435.849 69.0347 435.721 69.632C435.593 70.1867 435.337 70.6987 434.953 71.168C434.569 71.5947 434.078 71.872 433.481 72C432.926 72.0853 432.286 71.9573 431.561 71.616C430.238 70.9333 428.958 70.4427 427.721 70.144C426.526 69.8453 425.374 69.696 424.265 69.696C422.174 69.696 420.617 70.0587 419.593 70.784C418.612 71.5093 418.121 72.4693 418.121 73.664C418.121 74.56 418.42 75.3067 419.017 75.904C419.614 76.5013 420.532 76.9067 421.769 77.12L428.169 78.336C430.942 78.848 433.033 79.7867 434.441 81.152C435.892 82.5173 436.617 84.352 436.617 86.656C436.617 89.7707 435.401 92.224 432.969 94.016C430.537 95.7653 427.294 96.64 423.241 96.64ZM453.723 96.64C450.182 96.64 447.515 95.6373 445.723 93.632C443.931 91.584 443.035 88.5973 443.035 84.672V54.4C443.035 53.0773 443.376 52.0747 444.059 51.392C444.742 50.7093 445.723 50.368 447.003 50.368C448.283 50.368 449.264 50.7093 449.947 51.392C450.672 52.0747 451.035 53.0773 451.035 54.4V84.288C451.035 86.2507 451.44 87.7013 452.251 88.64C453.104 89.5787 454.299 90.048 455.835 90.048C456.176 90.048 456.496 90.048 456.795 90.048C457.094 90.0053 457.392 89.9627 457.691 89.92C458.288 89.8347 458.694 90.0053 458.907 90.432C459.12 90.816 459.227 91.6267 459.227 92.864C459.227 93.9307 459.014 94.7627 458.587 95.36C458.16 95.9573 457.456 96.32 456.475 96.448C456.048 96.4907 455.6 96.5333 455.131 96.576C454.662 96.6187 454.192 96.64 453.723 96.64ZM477.432 96.64C474.189 96.64 471.373 95.9787 468.984 94.656C466.595 93.3333 464.739 91.456 463.416 89.024C462.093 86.5493 461.432 83.648 461.432 80.32C461.432 77.8027 461.795 75.5627 462.52 73.6C463.288 71.5947 464.376 69.888 465.784 68.48C467.192 67.0293 468.877 65.9413 470.84 65.216C472.803 64.448 475 64.064 477.432 64.064C480.675 64.064 483.491 64.7253 485.88 66.048C488.269 67.3707 490.125 69.248 491.448 71.68C492.771 74.112 493.432 76.992 493.432 80.32C493.432 82.8373 493.048 85.0987 492.28 87.104C491.555 89.1093 490.488 90.8373 489.08 92.288C487.672 93.696 485.987 94.784 484.024 95.552C482.061 96.2773 479.864 96.64 477.432 96.64ZM477.432 90.56C479.011 90.56 480.397 90.176 481.592 89.408C482.787 88.64 483.704 87.5093 484.344 86.016C485.027 84.48 485.368 82.5813 485.368 80.32C485.368 76.9067 484.643 74.368 483.192 72.704C481.741 70.9973 479.821 70.144 477.432 70.144C475.853 70.144 474.467 70.528 473.272 71.296C472.077 72.0213 471.139 73.152 470.456 74.688C469.816 76.1813 469.496 78.0587 469.496 80.32C469.496 83.6907 470.221 86.2507 471.672 88C473.123 89.7067 475.043 90.56 477.432 90.56Z" fill="#4D94AA"/>
</svg>
